{"title":"The.36th.Chamber.Of.Shaolin.1978.1080p.DTS.x264.iSAAC","uid":11372813,"size":8535410161,"categoryP":"video","categoryS":"hd___movies","magnet":"?xt=urn:btih:8de244ee289c7a8f6e6937494de51e61911a7627&amp;dn=The.36th.Chamber.Of.Shaolin.1978.1080p.DTS.x264.iSAAC&amp;tr=udp%3A%2F%2Ftracker.openbittorrent.com%3A80&amp;tr=udp%3A%2F%2Fopen.demonii.com%3A1337&amp;tr=udp%3A%2F%2Ftracker.coppersurfer.tk%3A6969&amp;tr=udp%3A%2F%2Fexodus.desync.com%3A6969","seeders":4,"leechers":2,"uploader":"Isaac09","files":-1,"time":1415108923,"description":"The.36th.Chamber.Of.Shaolin.1978.1080p.DTS.x264.iSAAC\n\nDirector: Chia-Liang Liu\nWriters: Kuang Ni\nStars: Chia-Hui Liu, Lieh Lo, Chia Yung Liu\n   &lt;a href=&quot;\nhttp://www.imdb.com/title/tt0078243/&quot; rel=&quot;nofollow&quot; target=&quot;_NEW&quot;&gt;\nhttp://www.imdb.com/title/tt0078243/&lt;/a&gt;\n\nThe anti-Ching patriots, under the guidance of Ho Kuang-han, have secretly set up their base in Canton, disguised as school masters. During a brutal Manchu attack, Lui manages to escape and devotes himself to learning the martial arts in order to seek revenge. In a short period of time he masters the deadly use of his fists, feet and palms, along with such weapons as swords, sticks, and lances. With his learning complete, he takes on the Manchus.\n\nRUNTIME.......: 1h 56m\nVIDEO CODEC...: x264, High @4.1\nFRAMERATE.....: 23.976 fps\nBITRATE.......: 9.7 Mbps\nRESOLUTION....: 1920x816\nSOURCE........: Russian Blu-Ray\nGENRE.........: Action, Adventure, Drama\n\nAUDIO 1.......: Chinese DTS 5.1 @ 768 Kbps\nSUBTITLES.....: English\n\n\nFormat                                   : Matroska\nFormat version                           : Version 4 / Version 2\nFile size                                : 7.95 GiB\nDuration                                 : 1h 56mn\nOverall bit rate                         : 9 798 Kbps\nMovie name                               : =kinozal.tv-HD=\nEncoded date                             : UTC 2014-10-27 02:38:07\nWriting application                      : mkvmerge v7.2.0 ('On Every Street') 64bit built on Sep 13 2014 15:52:10\nWriting library                          : libebml v1.3.0 + libmatroska v1.4.1\nDURATION                                 : 01:52:30.743000000\nNUMBER_OF_FRAMES                         : 813\nNUMBER_OF_BYTES                          : 21062\n_STATISTICS_WRITING_APP                  : mkvmerge v7.2.0 ('On Every Street') 64bit built on Sep 13 2014 15:52:10\n_STATISTICS_WRITING_DATE_UTC             : 2014-10-27 02:38:07\n_STATISTICS_TAGS                         : BPS DURATION NUMBER_OF_FRAMES NUMBER_OF_BYTES\n\nVideo\nID                                       : 1\nFormat                                   : AVC\nFormat/Info                              : Advanced Video Codec\nFormat profile                           : &lt;a class=&quot;__cf_email__&quot; href=&quot;/cdn-cgi/l/email-protection&quot; data-cfemail=&quot;cd85a4aaa58d81f9e3fc&quot;&gt;[email&amp;#160;protected]&lt;/a&gt;&lt;script cf-hash='f9e31' type=&quot;text/javascript&quot;&gt;\n/* &lt;![CDATA[ */!function(){try{var t=&quot;currentScript&quot;in document?document.currentScript:function(){for(var t=document.getElementsByTagName(&quot;script&quot;),e=t.length;e--;)if(t[e].getAttribute(&quot;cf-hash&quot;))return t[e]}();if(t&amp;&amp;t.previousSibling){var e,r,n,i,c=t.previousSibling,a=c.getAttribute(&quot;data-cfemail&quot;);if(a){for(e=&quot;&quot;,r=parseInt(a.substr(0,2),16),n=2;a.length-n;n+=2)i=parseInt(a.substr(n,2),16)^r,e+=String.fromCharCode(i);e=document.createTextNode(e),c.parentNode.replaceChild(e,c)}}}catch(u){}}();/* ]]&gt; */&lt;/script&gt;\nFormat settings, CABAC                   : Yes\nFormat settings, ReFrames                : 5 frames\nCodec ID                                 : V_MPEG4/ISO/AVC\nDuration                                 : 1h 56mn\nBit rate                                 : 9 029 Kbps\nWidth                                    : 1 920 pixels\nHeight                                   : 816 pixels\nDisplay aspect ratio                     : 2.35:1\nFrame rate mode                          : Constant\nFrame rate                               : 23.976 fps\nColor space                              : YUV\nChroma subsampling                       : 4:2:0\nBit depth                                : 8 bits\nScan type                                : Progressive\nBits/(Pixel*Frame)                       : 0.240\nStream size                              : 7.17 GiB (90%)\nWriting library                          : x264 core 80 r1376 3feaec2\nEncoding settings                        : cabac=1 / ref=5 / deblock=1:0:0 / analyse=0x3:0x2 / me=umh / subme=7 / psy=1 / psy_rd=1.0:0.0 / mixed_ref=1 / me_range=16 / chroma_me=1 / trellis=1 / 8x8dct=1 / cqm=0 / deadzone=21,11 / fast_pskip=0 / chroma_qp_offset=-2 / threads=6 / sliced_threads=0 / nr=0 / decimate=1 / mbaff=0 / constrained_intra=0 / bframes=3 / b_pyramid=2 / b_adapt=1 / b_bias=0 / direct=3 / wpredb=1 / wpredp=0 / keyint=250 / keyint_min=25 / scenecut=40 / rc=2pass / mbtree=0 / bitrate=9029 / ratetol=1.0 / qcomp=0.60 / qpmin=10 / qpmax=51 / qpstep=4 / cplxblur=20.0 / qblur=0.5 / ip_ratio=1.40 / pb_ratio=1.30 / aq=1:1.00\nLanguage                                 : English\nDefault                                  : Yes\nForced                                   : No\nDURATION                                 : 01:56:08.587000000\nNUMBER_OF_FRAMES                         : 167079\nNUMBER_OF_BYTES                          : 7863450693\n_STATISTICS_WRITING_APP                  : mkvmerge v7.2.0 ('On Every Street') 64bit built on Sep 13 2014 15:52:10\n_STATISTICS_WRITING_DATE_UTC             : 2014-10-27 02:38:07\n_STATISTICS_TAGS                         : BPS DURATION NUMBER_OF_FRAMES NUMBER_OF_BYTES\n\nAudio\nID                                       : 2\nFormat                                   : DTS\nFormat/Info                              : Digital Theater Systems\nMode                                     : 16\nFormat settings, Endianness              : Big\nCodec ID                                 : A_DTS\nDuration                                 : 1h 56mn\nBit rate mode                            : Constant\nBit rate                                 : 768 Kbps\nChannel(s)                               : 2 channels\nChannel positions                        : Front: L R\nSampling rate                            : 48.0 KHz\nBit depth                                : 24 bits\nCompression mode                         : Lossy\nStream size                              : 638 MiB (8%)\nLanguage                                 : Chinese\nDefault                                  : No\nForced                                   : No\n\nText\nID                                       : 3\nFormat                                   : UTF-8\nCodec ID                                 : S_TEXT/UTF8\nCodec ID/Info                            : UTF-8 Plain Text\nLanguage                                 : English\nDefault                                  : Yes\nForced                                   : No","torrent":{"xt":"urn:btih:8de244ee289c7a8f6e6937494de51e61911a7627","amp;dn":"The.36th.Chamber.Of.Shaolin.1978.1080p.DTS.x264.iSAAC","amp;tr":["udp%3A%2F%2Ftracker.openbittorrent.com%3A80","udp%3A%2F%2Fopen.demonii.com%3A1337","udp%3A%2F%2Ftracker.coppersurfer.tk%3A6969","udp%3A%2F%2Fexodus.desync.com%3A6969"],"infoHash":"8de244ee289c7a8f6e6937494de51e61911a7627","infoHashBuffer":{"type":"Buffer","data":[141,226,68,238,40,156,122,143,110,105,55,73,77,229,30,97,145,26,118,39]},"announce":[],"urlList":[]}}